<svg width="30" height="50" viewBox="0 0 30 50" fill="none" xmlns="http://www.w3.org/2000/svg">
<g clip-path="url(#clip0_794_418)">
<path d="M1.49412 18.8632L8.48905 23.3948H10.6238L5.81982 20.2828V15.1145C6.68026 14.8862 7.31394 14.1107 7.31394 13.1885C7.31394 12.0871 6.40998 11.1942 5.29494 11.1942C4.17989 11.1942 3.27593 12.0871 3.27593 13.1885C3.27593 14.1107 3.90962 14.8862 4.77006 15.1145V19.6027L2.54476 18.1608V10.4991C3.40519 10.2708 4.03888 9.49525 4.03888 8.57311C4.03888 7.4717 3.13492 6.5788 2.01988 6.5788C0.904831 6.5788 0.000870448 7.4717 0.000870448 8.57311H0C0 9.49525 0.633686 10.2708 1.49412 10.4991V18.8632ZM4.21993 13.1881C4.21993 12.6017 4.70129 12.1262 5.29494 12.1262C5.88858 12.1262 6.36994 12.6017 6.36994 13.1881C6.36994 13.7745 5.88858 14.25 5.29494 14.25C4.70129 14.25 4.21993 13.7745 4.21993 13.1881ZM0.944436 8.57311C0.944436 7.98672 1.42579 7.51125 2.01944 7.51125C2.61309 7.51125 3.09444 7.98672 3.09444 8.57311C3.09444 9.1595 2.61309 9.63497 2.01944 9.63497C1.42579 9.63497 0.944436 9.1595 0.944436 8.57311Z" fill="#06C2B3"/>
<path d="M12.5453 21.9718V11.1254C13.4058 10.8972 14.0395 10.1216 14.0395 9.19947C14.0395 8.09806 13.1355 7.20515 12.0204 7.20515C10.9054 7.20515 10.0014 8.09806 10.0014 9.19947C10.0014 10.1216 10.6351 10.8972 11.4956 11.1254V21.2917L8.75409 19.5158V3.92027C9.61453 3.692 10.2482 2.91645 10.2482 1.99431C10.2482 0.892906 9.34425 0 8.22921 0C7.11417 0 6.21021 0.892906 6.21021 1.99431C6.21021 2.91645 6.84389 3.692 7.70433 3.92027V20.2183L12.6071 23.3948H14.7419L12.5453 21.9718ZM10.9572 9.19947C10.9572 8.61308 11.4386 8.13761 12.0322 8.13761C12.6258 8.13761 13.1072 8.61308 13.1072 9.19947C13.1072 9.78585 12.6258 10.2613 12.0322 10.2613C11.4386 10.2613 10.9572 9.78585 10.9572 9.19947ZM7.16857 1.99431C7.16857 1.40793 7.64993 0.932457 8.24357 0.932457C8.83722 0.932457 9.31858 1.40793 9.31858 1.99431C9.31858 2.5807 8.83722 3.05617 8.24357 3.05617C7.64993 3.05617 7.16857 2.5807 7.16857 1.99431Z" fill="#06C2B3"/>
<path d="M22.0894 1.05283C20.9744 1.05283 20.0704 1.94573 20.0704 3.04714C20.0704 3.96928 20.7041 4.74482 21.5646 4.9731V19.4436L18.8492 21.2028V14.1145C19.7096 13.8863 20.3433 13.1107 20.3433 12.1886C20.3433 11.0872 19.4394 10.1943 18.3243 10.1943C17.2093 10.1943 16.3053 11.0872 16.3053 12.1886C16.3053 13.1107 16.939 13.8863 17.7994 14.1145V21.8829L15.4653 23.3948H17.6001L22.6143 20.1465V4.9731C23.4748 4.74482 24.1084 3.96928 24.1084 3.04714C24.1084 1.94573 23.2045 1.05283 22.0894 1.05283ZM17.2493 12.1881C17.2493 11.6018 17.7307 11.1263 18.3243 11.1263C18.918 11.1263 19.3993 11.6018 19.3993 12.1881C19.3993 12.7745 18.918 13.25 18.3243 13.25C17.7307 13.25 17.2493 12.7745 17.2493 12.1881ZM23.164 3.04714C23.164 3.63353 22.6827 4.109 22.089 4.109C21.4954 4.109 21.014 3.63353 21.014 3.04714C21.014 2.46075 21.4954 1.98528 22.089 1.98528C22.6827 1.98528 23.164 2.46075 23.164 3.04714Z" fill="#06C2B3"/>
<path d="M27.9811 4.94431C26.866 4.94431 25.9621 5.83721 25.9621 6.93862C25.9621 7.86076 26.5958 8.6363 27.4562 8.86458V18.6315L25.536 19.8752V17.7489C26.3964 17.5206 27.0301 16.7451 27.0301 15.823C27.0301 14.7216 26.1261 13.8287 25.0111 13.8287C23.8961 13.8287 22.9921 14.7216 22.9921 15.823C22.9921 16.7451 23.6258 17.5206 24.4862 17.7489V20.5558L20.1035 23.3953H22.2383L28.506 19.3348V8.86458C29.3664 8.6363 30.0001 7.86076 30.0001 6.93862C30.0001 5.83721 29.0961 4.94431 27.9811 4.94431ZM24.9967 16.8848C24.4109 16.8848 23.9361 16.4094 23.9361 15.823C23.9361 15.2366 24.4109 14.7611 24.9967 14.7611C25.5826 14.7611 26.0574 15.2366 26.0574 15.823C26.0574 16.4094 25.5826 16.8848 24.9967 16.8848ZM29.0556 6.93905C29.0556 7.52544 28.5743 8.00091 27.9806 8.00091C27.387 8.00091 26.9056 7.52544 26.9056 6.93905C26.9056 6.35266 27.387 5.87719 27.9806 5.87719C28.5743 5.87719 29.0556 6.35266 29.0556 6.93905Z" fill="#06C2B3"/>
<path d="M10.6696 33.3788L8.81079 33.4575V35.2132L12.1198 38.1606L12.0419 35.9295L10.6696 33.3788Z" fill="#06C2B3"/>
<path d="M27.7926 23.5612C26.9879 23.6734 25.6392 24.0599 21.488 25.8822C20.8456 25.4381 18.1759 23.7473 15.3509 23.7293C11.1832 23.7293 8.28502 26.9983 8.28502 26.9983C8.04391 26.7463 7.66526 26.3826 7.14909 26.0151C6.0793 25.2529 5.18492 25.0181 3.94235 24.5637C3.19594 24.2907 2.13617 23.8699 0.874023 23.2495C1.38106 24.2912 1.82455 25.1243 2.1414 25.703C3.07756 27.4105 3.32085 27.6401 3.56327 28.4337C3.62029 28.6198 3.72474 28.9947 3.99371 29.4362C4.28096 29.9078 4.61826 30.2307 4.85502 30.4276L7.35799 30.508C7.06073 30.2466 5.7481 29.0863 4.71662 27.9892C4.47028 27.7269 4.13864 27.3611 3.84791 26.8031C3.65598 26.4355 3.5463 26.1079 3.48276 25.8818C4.33362 26.0452 5.003 26.2958 5.46738 26.503C6.209 26.834 6.64466 27.0283 7.02722 27.4939C7.15823 27.6534 7.34929 28.0274 7.72619 28.7695C7.82542 28.9646 8.17839 29.6598 8.28546 29.8709C9.63465 31.581 11.1993 32.0543 11.473 32.2207C11.7468 32.3871 12.5998 32.6317 12.6316 34.3792C12.6634 36.1268 13.9743 37.5158 13.9743 37.5158C13.9743 37.5158 14.1209 37.757 14.0692 37.8696C13.9912 38.039 13.4994 37.8404 13.0055 38.088C12.8666 38.1576 12.7935 38.2299 12.7691 38.3214C12.7352 38.4517 12.8131 38.5725 12.8418 38.6133C13.2892 39.201 13.9738 39.4663 14.137 39.8355C13.9904 39.7788 13.4394 39.5798 13.2222 39.8007C12.9511 40.0772 13.3536 40.854 13.5743 41.1893C13.7227 41.415 13.8781 41.5771 13.9843 41.6768H15.3509V26.3598C15.3509 26.3598 17.3229 31.866 17.3072 32.4632C17.2911 33.0603 16.8015 35.7833 16.2013 36.4698C16.0703 36.6577 15.9284 36.9161 15.8457 37.2424C15.8188 37.349 15.8061 37.4307 15.7983 37.4844C15.6799 38.287 15.6638 38.842 15.6638 38.842C15.6477 39.4052 15.5924 40.3424 15.5128 41.5938H16.5625C16.6322 41.1425 16.7654 40.5909 17.0239 39.9968C17.5879 38.7006 18.4545 37.8782 18.9928 37.4457C19.7166 36.8344 20.4408 36.2231 21.1646 35.6118L21.2456 32.9795L19.0655 33.0607C19.0655 33.0607 17.5766 37.2708 16.9673 37.5261C16.358 37.7811 17.9505 33.7791 18.0153 33.2989C18.7661 32.9752 20.1122 32.2706 21.2456 30.8528C21.9123 30.0187 22.2971 29.1985 22.5234 28.5846C22.6579 28.3666 22.9778 27.9148 23.5727 27.5889C24.1154 27.2914 24.622 27.2442 24.8784 27.2377C24.7952 27.6818 24.6586 28.0141 24.5524 28.2316C24.1672 29.0184 23.5897 29.4994 22.5303 30.3644C22.2004 30.6339 21.9202 30.8463 21.73 30.9869C22.7258 30.9383 23.4669 30.9224 23.9709 30.9172C24.2107 30.9147 25.1221 30.9074 25.1221 30.9074C25.7976 29.7922 26.3577 28.8219 26.7934 28.0494C27.5833 26.6487 27.8745 26.0589 28.133 25.3036C28.3872 24.5616 28.5195 23.9249 28.5926 23.4898C28.3306 23.5057 28.0629 23.5242 27.7922 23.5621L27.7926 23.5612ZM19.3075 33.8578L20.6001 33.6978V35.2141L18.0153 37.288L19.3079 33.8578H19.3075ZM20.1819 30.416C19.5081 31.4753 18.4436 31.8407 18.0954 31.9443L16.2387 25.163C18.9245 26.1638 19.6605 26.8267 19.6605 26.8267C20.08 27.205 20.51 27.6027 20.6715 28.2622C20.9161 29.2613 20.3651 30.1275 20.1819 30.4155V30.416ZM27.1485 25.7971C26.9531 26.227 26.6641 26.8594 26.2467 27.6122C25.9107 28.2183 25.4385 28.9982 24.7987 29.87H24.152C24.5624 29.4685 24.8592 29.0923 25.062 28.8077C25.3719 28.3726 25.7823 27.785 26.0152 26.9286C26.1135 26.5666 26.1531 26.2567 26.1706 26.043C25.3206 25.9747 24.669 26.1483 24.3091 26.273C23.399 26.589 22.8367 27.1199 22.4659 27.478C21.9236 28.0012 21.5785 28.5296 21.367 28.913L21.1655 27.2364C21.73 27.0004 22.5834 26.6281 23.6101 26.117C24.3021 25.7722 24.5724 25.6135 25.133 25.3466C25.7445 25.0547 26.6389 24.6639 27.7861 24.2869C27.6303 24.6871 27.4188 25.2034 27.1489 25.7971H27.1485Z" fill="#06C2B3"/>
<path d="M21.5284 36.0099C21.5284 36.0099 21.1284 36.3826 20.55 36.9183C19.8663 37.5515 17.7193 39.5458 17.5644 39.8201C17.3559 40.1894 17.3254 40.4379 17.1087 41.02C16.9133 41.5453 16.7083 41.9589 16.5621 42.2323L15.3504 42.3105H14.3019C14.3019 42.3105 14.2615 42.4305 14.1705 42.5504C14.1705 42.5504 14.0077 42.7404 13.7366 42.7903C13.3523 42.8608 12.837 42.0096 12.3887 41.3028C10.9603 39.051 10.4441 38.625 10.2191 38.4526C9.96059 38.2544 9.78475 38.1594 9.42918 37.849C8.8438 37.3383 8.44775 36.8344 8.20489 36.4901L5.9043 39.9989C5.9043 39.9989 6.76082 44.1694 7.35751 44.8637C7.65172 45.2055 7.96726 45.5464 7.96726 45.5464C8.9513 46.5227 9.85221 46.8868 10.8141 47.4096C11.4547 47.7578 12.3369 48.293 13.3331 49.0914H16.5621L22.0537 45.8207L24.1528 40.5135L21.5284 36.0107V36.0099ZM21.3665 37.1285L22.9411 39.8386L18.8231 39.6787L21.3665 37.1285ZM14.9465 45.1032L15.2703 43.1888L16.2387 42.9494V43.1888L15.6742 45.1032H14.9461H14.9465ZM16.153 48.453H15.5123V48.1361L17.8168 40.8755L21.0022 45.5816L16.1525 48.453H16.153ZM21.6098 44.8637L18.3382 40.3966L23.4255 40.7152L21.6098 44.8633V44.8637Z" fill="#06C2B3"/>
</g>
<defs>
<clipPath id="clip0_794_418">
<rect width="30" height="49.0909" fill="white"/>
</clipPath>
</defs>
</svg>
